<svg width="20" height="20" viewBox="0 0 20 20" fill="none" xmlns="http://www.w3.org/2000/svg">
<g clip-path="url(#clip0_1328_181)">
<path d="M16.896 4.87772C15.6345 3.86854 14.1208 3.36396 12.5229 3.27986L12.2706 3.53215C13.7003 3.86854 14.9618 4.54133 16.1391 5.4664C14.7095 4.70952 13.1116 4.20493 11.4296 4.03674C10.9251 3.95264 10.5046 3.95264 9.99998 3.95264C9.49539 3.95264 9.0749 3.95264 8.57032 4.03674C6.88836 4.20493 5.2905 4.70952 3.86084 5.4664C5.03821 4.54133 6.29967 3.86854 7.72934 3.53215L7.47704 3.27986C5.87918 3.36396 4.36542 3.86854 3.10396 4.87772C1.67429 7.56885 0.917411 10.5964 0.833313 13.708C2.09478 15.0536 3.86084 15.8945 5.71099 15.8945C5.71099 15.8945 6.29967 15.2218 6.72016 14.6331C5.62689 14.3808 4.61772 13.7921 3.94493 12.867C4.53362 13.2034 5.1223 13.5398 5.71099 13.7921C6.46787 14.1285 7.22475 14.2967 7.98163 14.4649C8.65441 14.549 9.3272 14.6331 9.99998 14.6331C10.6728 14.6331 11.3455 14.549 12.0183 14.4649C12.7752 14.2967 13.5321 14.1285 14.289 13.7921C14.8777 13.5398 15.4663 13.2034 16.055 12.867C15.3822 13.7921 14.3731 14.3808 13.2798 14.6331C13.7003 15.2218 14.289 15.8945 14.289 15.8945C16.1391 15.8945 17.9052 15.0536 19.1666 13.708C19.0825 10.5964 18.3257 7.56885 16.896 4.87772ZM7.22475 12.1942C6.38377 12.1942 5.62689 11.4374 5.62689 10.5123C5.62689 9.5872 6.38377 8.83032 7.22475 8.83032C8.06573 8.83032 8.82261 9.5872 8.82261 10.5123C8.82261 11.4374 8.06573 12.1942 7.22475 12.1942ZM12.7752 12.1942C11.9342 12.1942 11.1773 11.4374 11.1773 10.5123C11.1773 9.5872 11.9342 8.83032 12.7752 8.83032C13.6162 8.83032 14.3731 9.5872 14.3731 10.5123C14.3731 11.4374 13.6162 12.1942 12.7752 12.1942Z" fill="black"/>
</g>
<defs>
<clipPath id="clip0_1328_181">
<rect width="20" height="20" fill="white"/>
</clipPath>
</defs>
</svg>
