<svg width="20" height="20" viewBox="0 0 20 20" fill="none" xmlns="http://www.w3.org/2000/svg">
<path fill-rule="evenodd" clip-rule="evenodd" d="M1.81403 4.1976C1.53754 4.74024 1.53754 5.4506 1.53754 6.87132V13.1287C1.53754 14.5494 1.53754 15.2598 1.81403 15.8024C2.05724 16.2797 2.44531 16.6678 2.92263 16.911C3.46528 17.1875 4.17564 17.1875 5.59636 17.1875H14.3905C15.8112 17.1875 16.5216 17.1875 17.0642 16.911C17.5415 16.6678 17.9296 16.2797 18.1728 15.8024C18.4493 15.2598 18.4493 14.5494 18.4493 13.1287V6.87132C18.4493 5.4506 18.4493 4.74024 18.1728 4.1976C17.9296 3.72027 17.5415 3.3322 17.0642 3.08899C16.5216 2.8125 15.8112 2.8125 14.3905 2.8125H5.59636C4.17564 2.8125 3.46528 2.8125 2.92263 3.08899C2.44531 3.3322 2.05724 3.72027 1.81403 4.1976ZM5.44475 5.53187C5.07859 5.242 4.54678 5.30384 4.25691 5.66999C3.96704 6.03615 4.02888 6.56796 4.39503 6.85783L9.46856 10.8744C9.77611 11.1179 10.2107 11.1179 10.5183 10.8744L15.5918 6.85783C15.958 6.56796 16.0198 6.03615 15.7299 5.66999C15.4401 5.30384 14.9082 5.242 14.5421 5.53187L9.99342 9.1329L5.44475 5.53187Z" fill="black"/>
</svg>
