<svg width="20" height="20" viewBox="0 0 20 20" fill="none" xmlns="http://www.w3.org/2000/svg">
<path d="M5.71262 14.6293C11.8085 20.7252 15.6585 19.4419 18.2252 16.8752C18.934 16.1664 18.934 15.0173 18.2252 14.3085L16.1198 12.203C15.3335 11.4167 14.0586 11.4167 13.2723 12.203C12.5582 12.9171 11.5184 13.2299 10.6389 12.7338C10.1224 12.4424 9.52171 12.0217 8.92098 11.421C8.32026 10.8202 7.8995 10.2195 7.60816 9.70303C7.11203 8.8235 7.42486 7.7837 8.13891 7.06965C8.92523 6.28334 8.92522 5.00848 8.13891 4.22216L6.03346 2.11671C5.32468 1.40794 4.17554 1.40793 3.46676 2.11671C0.900073 4.6834 -0.383273 8.53343 5.71262 14.6293Z" fill="black"/>
</svg>
